
<svg version="1.0" xmlns="http://www.w3.org/2000/svg"
 width="225.000000pt" height="225.000000pt" viewBox="0 0 225.000000 225.000000"
 preserveAspectRatio="xMidYMid meet">

<g transform="translate(0.000000,225.000000) scale(0.100000,-0.100000)"
fill="#ffff" stroke="none">
<path d="M1765 1903 c-202 -43 -485 -198 -651 -355 -68 -65 -86 -88 -66 -88 4
0 43 30 87 67 207 173 484 307 707 343 69 11 80 11 103 -4 31 -20 31 -37 4
-94 -47 -97 -202 -238 -749 -683 -339 -276 -453 -390 -405 -405 6 -2 62 42
125 97 63 56 268 225 455 377 541 440 678 593 630 709 -8 19 -25 37 -40 43
-36 14 -117 11 -200 -7z"/>
<path d="M787 983 c-14 -22 -79 -201 -92 -250 -21 -80 -19 -110 9 -138 30 -30
79 -39 165 -32 93 8 146 27 146 52 0 22 5 22 -156 9 -117 -9 -134 0 -125 70 3
29 23 103 45 166 37 110 41 130 21 130 -5 0 -11 -3 -13 -7z"/>
</g>
</svg>
